HIERARCHY
ROOT Hips
{
	OFFSET -0.179506 -22.333345 2.821913
	CHANNELS 6 Xposition Yposition Zposition Zrotation Yrotation Xrotation 
	JOINT LeftUpLeg
	{
		OFFSET 6.951974 -9.140623 -0.681533
		CHANNELS 3 Zrotation Yrotation Xrotation
		JOINT LeftLeg
		{
			OFFSET 3.427654 -37.519855 -0.449580
			CHANNELS 3 Zrotation Yrotation Xrotation
			JOINT LeftFoot
			{
				OFFSET -1.359570 -39.796059 -4.369333
				CHANNELS 3 Zrotation Yrotation Xrotation
				JOINT LeftToe
				{
					OFFSET 2.635814 -5.579078 11.928840
					CHANNELS 3 Zrotation Yrotation Xrotation
					End Site
					{
						OFFSET 0.000000 0.000000 0.000000
					}
				}
			}
		}
	}
	JOINT RightUpLeg
	{
		OFFSET -6.767048 -9.052170 -0.431982
		CHANNELS 3 Zrotation Yrotation Xrotation
		JOINT RightLeg
		{
			OFFSET -3.829005 -38.256897 -0.885003
			CHANNELS 3 Zrotation Yrotation Xrotation
			JOINT RightFoot
			{
				OFFSET 1.577377 -39.841461 -4.231180
				CHANNELS 3 Zrotation Yrotation Xrotation
				JOINT RightToe
				{
					OFFSET -2.537174 -4.814398 12.334795
					CHANNELS 3 Zrotation Yrotation Xrotation
					End Site
					{
						OFFSET 0.000000 0.000000 0.000000
					}
				}
			}
		}
	}
	JOINT Spine
	{
		OFFSET -0.253288 10.896323 -2.669631
		CHANNELS 3 Zrotation Yrotation Xrotation
		JOINT Spine1
		{
			OFFSET 0.548704 13.518043 0.109247
			CHANNELS 3 Zrotation Yrotation Xrotation
			JOINT Spine2
			{
				OFFSET 0.145701 5.292222 2.542457
				CHANNELS 3 Zrotation Yrotation Xrotation
				JOINT Neck
				{
					OFFSET -0.277840 21.387037 -4.285703
					CHANNELS 3 Zrotation Yrotation Xrotation
					JOINT Head
					{
						OFFSET 0.515184 6.496960 5.134897
						CHANNELS 3 Zrotation Yrotation Xrotation
						End Site
						{
							OFFSET 0.000000 0.000000 0.000000
						}
					}
				}
				JOINT LeftShoulder
				{
					OFFSET 7.884473 12.174932 -3.408961
					CHANNELS 3 Zrotation Yrotation Xrotation
					JOINT LeftArm
					{
						OFFSET 9.097692 3.046888 -0.886815
						CHANNELS 3 Zrotation Yrotation Xrotation
						JOINT LeftForeArm
						{
							OFFSET 25.961220 -1.277207 -2.745643
							CHANNELS 3 Zrotation Yrotation Xrotation
							JOINT LeftHand
							{
								OFFSET 24.923361 0.898606 -0.117091
								CHANNELS 3 Zrotation Yrotation Xrotation
								End Site
								{
									OFFSET 0.000000 0.000000 0.000000
								}
							}
						}
					}
				}
				JOINT RightShoulder
				{
					OFFSET -8.175920 11.883285 -3.861528
					CHANNELS 3 Zrotation Yrotation Xrotation
					JOINT RightArm
					{
						OFFSET -9.601238 3.255117 -0.914307
						CHANNELS 3 Zrotation Yrotation Xrotation
						JOINT RightForeArm
						{
							OFFSET -25.374195 -1.332924 -2.140099
							CHANNELS 3 Zrotation Yrotation Xrotation
							JOINT RightHand
							{
								OFFSET -25.529810 0.777228 -0.555919
								CHANNELS 3 Zrotation Yrotation Xrotation
								End Site
								{
									OFFSET 0.000000 0.000000 0.000000
								}
							}
						}
					}
				}
			}
		}
	}
}
MOTION
Frames: 9
Frame Time: 0.033333
288.511627 -268.894257 92.232338 -150.786506 0.103123 88.469601 8.082392 1.911481 -27.252824 -5.564503 19.023788 14.313476 -6.689753 10.278277 6.661964 nan nan nan -3.528698 2.523940 6.223270 -7.882329 5.472548 68.259805 6.564870 -5.972525 6.864522 nan nan nan -4.123389 16.435500 19.240471 0.445130 7.112436 -0.023165 2.776745 2.831918 -1.290621 2.087526 -2.457962 -8.355818 3.349989 -4.088295 -3.573842 -18.955626 11.760342 9.323614 -62.180412 22.280282 5.900024 -21.283755 -65.321149 43.124962 17.878246 -26.610562 -19.800163 19.572375 -1.124951 1.258469 56.665284 -10.024170 14.758192 3.747530 82.513336 16.146913 -4.404994 24.048316 -27.046896 
286.788300 -267.173920 91.836746 -150.374863 -0.087270 88.778789 7.869994 1.256030 -26.893929 -6.366404 18.856752 15.437887 -6.793712 10.898873 6.826531 nan nan nan -2.788090 3.212743 3.683700 -8.253482 5.130167 73.038836 6.016663 -6.341062 7.692777 nan nan nan -5.044592 16.361693 19.250446 0.625917 7.216631 -0.865502 2.978735 2.398495 -1.099645 2.194529 -2.500107 -8.306922 3.443162 -4.070569 -3.539769 -18.833430 11.230633 9.280331 -62.519550 20.871218 6.611843 -18.723550 -64.802519 40.480331 19.144629 -25.818933 -21.897316 19.802324 -1.529912 0.767204 56.913480 -10.440805 15.190845 -0.466467 81.016561 12.021555 -3.226414 24.138678 -27.483684 
285.039368 -265.452881 91.366562 -149.567983 0.225607 89.136843 7.936419 0.395343 -26.802165 -6.604307 18.829421 17.105442 -7.135627 10.757437 6.659547 nan nan nan -1.641407 4.054732 1.432600 -8.233302 4.131642 77.659170 5.655677 -5.922609 6.787365 nan nan nan -5.148935 15.874070 19.294885 0.757372 6.934841 -1.532049 2.900603 2.061023 -1.043964 2.772381 -1.671257 -8.190213 3.154901 -4.446050 -3.526808 -18.903700 11.219470 9.981202 -62.654033 19.744792 6.208022 -18.264318 -66.026083 39.096172 18.223882 -25.481692 -23.668408 20.605928 -2.521989 1.249000 56.814328 -9.549976 14.520214 -7.588050 80.927001 6.981316 -14.586185 28.642609 -23.033723 
283.172180 -263.768219 90.850945 -149.137304 0.085328 89.156850 7.320437 -0.046318 -26.012498 -7.326512 17.447119 18.326705 -5.959254 9.542911 4.955562 nan nan nan -1.165116 4.901982 -0.577516 -7.888272 3.709165 82.108572 5.680076 -6.073696 6.019985 nan nan nan -5.487021 15.477043 19.716108 0.681399 6.899478 -2.289473 2.769528 1.781725 -0.862663 3.379958 -1.497653 -8.327796 2.874528 -4.195658 -3.173133 -19.029037 10.804246 9.654985 -62.595860 18.871301 6.197560 -16.462309 -65.009452 39.061423 17.858728 -26.911815 -17.947843 20.607281 -2.958861 0.737887 57.188718 -10.151338 14.215188 -5.429303 79.209729 9.502801 -14.054994 29.149687 -22.150148 
280.804352 -261.137726 90.049011 -145.216887 0.670241 90.562976 6.936591 -1.252610 -27.220797 -8.523002 14.824070 20.863959 -4.723258 6.465814 0.049784 nan nan nan 0.477800 3.498916 -2.030744 -7.701263 1.820086 84.942956 5.745952 -6.381558 4.826706 nan nan nan -6.727195 14.567877 15.227240 2.803767 5.082131 -0.251315 3.143740 0.951703 -1.106057 4.024380 -1.582592 -6.329800 2.510099 -4.321587 -4.395160 -19.960322 10.631599 10.607775 -61.860712 17.748377 7.237374 -13.108481 -64.832567 34.802839 19.751652 -26.347256 -16.288386 22.105757 -4.252143 0.982106 55.667608 -10.692350 14.534776 -3.975480 77.811424 10.207664 -14.953251 29.702997 -22.712600 
278.790527 -259.452454 89.194756 -145.100451 0.763647 91.508836 6.744888 -1.462196 -27.419003 -9.224853 14.383099 22.273701 -1.907254 5.571979 -3.698716 nan nan nan 1.219042 4.073541 -5.475826 -6.425920 2.038185 89.703124 5.603659 -6.827626 3.639859 nan nan nan -7.288431 13.869692 12.898417 3.346326 5.135988 0.732121 2.656981 0.936451 -0.720765 4.451531 -1.237181 -6.521049 2.108268 -4.459612 -4.299887 -20.120936 10.736506 10.450286 -61.237336 16.292326 8.361796 -11.968174 -64.765818 32.783683 19.186873 -26.597493 -17.143772 22.270736 -4.727708 1.069014 55.741309 -10.271738 15.379800 -6.264028 76.041089 7.023201 -14.033028 30.184830 -23.880935 
276.778656 -257.577209 88.444885 -145.485876 0.886387 90.827498 6.035644 -0.229694 -25.866987 -9.542345 13.909920 24.503424 0.126594 5.597223 -8.122275 nan nan nan 1.833553 4.833044 -6.702760 -6.009468 2.181599 93.486236 5.594608 -6.549563 2.445516 nan nan nan -7.029209 13.606016 13.406873 3.077022 5.497315 0.431316 2.405054 0.742912 -0.241187 4.950515 -0.698919 -7.040927 1.718912 -4.423984 -3.595178 -20.466933 10.280466 9.885335 -60.433573 15.782122 8.063529 -9.722563 -64.678694 32.984546 16.973383 -27.981809 -15.304413 22.538884 -4.463988 0.888955 55.898196 -10.996055 15.313349 -7.111903 74.336153 6.542601 -15.220213 30.752559 -24.858171 
275.580688 -256.270111 87.900841 -142.765907 -0.479049 93.374495 5.112128 -3.712770 -28.893782 -10.917981 13.333410 26.006190 2.804147 8.255032 -10.238652 nan nan nan 1.191560 5.515877 -12.224505 -5.071017 -0.572219 98.440370 5.280850 -7.995035 0.945239 nan nan nan -10.690518 12.459631 12.099419 4.211541 4.357958 -1.515408 2.652644 0.083015 0.538549 6.013564 0.462218 -8.042130 1.393346 -5.351255 -2.602674 -20.782792 10.289229 10.375460 -59.182594 13.091154 10.258423 -8.226509 -63.132310 28.763733 24.045352 -27.424316 -19.961292 23.911917 -5.419184 0.525494 55.370542 -10.571020 18.142949 -10.740843 72.389473 2.808793 -18.717638 29.510950 -27.816834 
273.891663 -254.770538 87.222549 -142.215047 -1.156316 94.433639 4.526201 -4.858717 -29.887687 -11.425414 14.217439 28.142700 4.707087 8.152180 -13.412245 nan nan nan -0.495834 6.586584 -16.659395 -5.601295 -2.253206 102.993464 6.167541 -7.072473 1.114294 nan nan nan -12.389261 11.950795 10.385242 4.871067 4.056188 -0.494652 2.591461 -0.171038 0.481074 6.820227 1.427547 -8.635488 0.637032 -5.778573 -2.728236 -21.062530 9.804354 10.379055 -58.970764 11.402749 10.916070 -3.766065 -64.074929 22.672342 18.398438 -28.272083 -16.819894 24.474985 -5.783253 0.378377 55.270868 -10.422434 19.783107 -14.889422 70.827704 -1.112522 -14.687977 28.452365 -27.344825 
